<?xml version="1.0" standalone="no"?><!DOCTYPE svg PUBLIC "-//W3C//DTD SVG 1.1//EN" "http://www.w3.org/Graphics/SVG/1.1/DTD/svg11.dtd"><svg t="1722876508070" class="icon" viewBox="0 0 1024 1024" version="1.1" xmlns="http://www.w3.org/2000/svg" p-id="4681" xmlns:xlink="http://www.w3.org/1999/xlink" width="200" height="200"><path d="M512 0c282.768 0 512 229.232 512 512 0 282.768-229.232 512-512 512C229.232 1024 0 794.768 0 512 0 229.232 229.232 0 512 0z m148.356 266.748c-3.152-12.36-9.3-13.928-18.32-5.38-2.216 2.092-4.544 4.276-6.04 6.864-11.48 19.84-23.452 39.452-33.784 59.884-4.512 8.916-9.412 11.868-18.928 10.38-16.368-2.56-32.88-5.932-49.316-5.88-20.192 0.064-40.544 2.24-60.5 5.528-12.128 1.992-15.648 2.16-21.5-8.752-12.824-23.92-25.76-47.728-45.544-66.988-9.6-9.348-18.328-7.78-22.752 4.992-2.212 6.392-4.48 12.88-5.608 19.508-7.824 45.868-15.944 91.696-22.808 137.72-6.836 45.824-12.812 91.8-18.216 137.824-4.304 36.664-7.1 73.508-10.72 110.252-1.064 10.732-1.9 21.596-4.4 32.02-0.8 3.36-6.944 8.172-10.012 7.752-9.088-1.26-17.928-4.608-26.756-7.48-22.7-7.384-30.992-35.228-23.2-55.42 6.196-16.04 22.528-21.664 32.456-33.664 3.052-3.688 6.52-9.836 5.36-13.408-1.112-3.416-7.972-6.928-12.36-7-26.86-0.46-42.828 17.08-54.112 37.896-22.2 40.956-5.328 107.16 58.024 117.12 10.624 1.68 21.444 2.204 32 4.156 11.292 2.092 22.296 7.108 33.576 7.616 55.268 2.496 110.588 3.92 165.888 5.712l0.04-1.496c18.34 0 36.712 0.708 55.008-0.136 45.708-2.116 91.38-5.028 137.08-7.408 10.348-0.54 13.52-7.02 12.904-15.524-2.368-32.796-4.68-65.616-8.184-98.3-3.024-28.192-7.84-56.184-11.488-84.312-4.416-34.104-7.984-68.32-12.776-102.364-3.208-22.828-7.976-45.436-11.932-68.16-4.76-27.336-9.22-54.728-14.172-82.028-2.528-13.92-5.416-27.812-8.908-41.52z m-137.792 235.96c1.696-0.708 4.04-1.42 5.544-0.808 7.18 2.936 14.184 6.332 21.724 9.776-2.14 0.42-5.248 2.112-7.292 1.252-11.8-4.944-23.2-2.08-34.776 0.576-1.704 0.392-3.88-1.28-5.368-1.832 7.408-3.312 13.74-6.26 20.168-8.96z m92.572-74.392c13.58-0.016 25.532 12.928 25.48 27.604-0.048 13.108-13.24 27.328-25.396 27.372-12.168 0.04-25.376-14.088-25.492-27.272-0.124-14.516 11.96-27.688 25.408-27.704z m-174.904 0.012c13.428 0.2 25.352 13.536 25.04 28.012-0.28 13.2-13.708 27.228-25.78 26.932-12.272-0.3-25.192-14.548-25.088-27.668 0.12-14.804 12.12-27.48 25.828-27.276z" fill="#4655AD" p-id="4682"><!--Default fill color: #4389BD / #D4237A-->></path></svg>